PathFileType	4	(X/Y/Z)	C:/Users/opensim2020/Desktop/walking_exp_matlab/subject06_walking19_straight_04.trc	
DataRate	CameraRate	NumFrames	NumMarkers	Units	OrigDataRate	OrigDataStartFrame	OrigNumFrames	
100.00	100.00	4	49	mm	100.00	4544	340	
Frame#	Time	LFHD			RFHD			LBHD			RBHD			C7			T10			CLAV			STRN			RBAK			LSHO			LUPA			LELB			LFRM			LWRA			LWRB			LFIN			RSHO			RUPA			RELB			RFRM			RWRA			RWRB			RFIN			LASI			RASI			LPSI			RPSI			LTHI			LKNE			LTIB			LANK			LHEE			LTOE			RTHI			RKNE			RTIB			RANK			RHEE			RTOE			*39			*40			*41			*42			*43			*44			*45			*46			*47			*48			
		X1	Y1	Z1	X2	Y2	Z2	X3	Y3	Z3	X4	Y4	Z4	X5	Y5	Z5	X6	Y6	Z6	X7	Y7	Z7	X8	Y8	Z8	X9	Y9	Z9	X10	Y10	Z10	X11	Y11	Z11	X12	Y12	Z12	X13	Y13	Z13	X14	Y14	Z14	X15	Y15	Z15	X16	Y16	Z16	X17	Y17	Z17	X18	Y18	Z18	X19	Y19	Z19	X20	Y20	Z20	X21	Y21	Z21	X22	Y22	Z22	X23	Y23	Z23	X24	Y24	Z24	X25	Y25	Z25	X26	Y26	Z26	X27	Y27	Z27	X28	Y28	Z28	X29	Y29	Z29	X30	Y30	Z30	X31	Y31	Z31	X32	Y32	Z32	X33	Y33	Z33	X34	Y34	Z34	X35	Y35	Z35	X36	Y36	Z36	X37	Y37	Z37	X38	Y38	Z38	X39	Y39	Z39	X40	Y40	Z40	X41	Y41	Z41	X42	Y42	Z42	X43	Y43	Z43	X44	Y44	Z44	X45	Y45	Z45	X46	Y46	Z46	X47	Y47	Z47	X48	Y48	Z48	X49	Y49	Z49	

1	0.000	-971.12378	1181.03052	1670.64844	-1102.97681	1181.37842	1659.58057	-970.27240	1313.72046	1613.07141	-1099.40344	1311.61816	1607.08948	-1022.26514	1310.53711	1455.44434	-1017.40167	1336.86255	1126.83972	-1026.98083	1196.51440	1380.85925	-1017.84894	1155.92847	1204.43982	-1093.49536	1382.23303	1280.90210	-862.86493	1245.33252	1414.54907	-787.58868	1237.38330	1212.85657	-774.64417	1233.72705	1099.93970	-757.09882	1172.30518	962.18719	-803.75421	1081.89014	873.57721	-766.43286	1137.34509	848.66974	-768.90033	1072.14380	785.25391	-1185.57312	1252.98816	1407.10022	-1270.87366	1295.04272	1209.08752	-1284.44775	1285.86121	1087.52856	-1302.07922	1263.08630	969.75043	-1272.66199	1190.01221	837.13647	-1310.00562	1246.34131	833.15601	-1313.42090	1202.58594	760.55640	-911.94635	1162.56970	960.20953	-1132.37866	1165.66956	970.54462	-934.39233	1318.18091	994.75940	-1103.77429	1317.07202	1002.26581	-861.77222	1231.14209	640.36218	-885.13257	1233.79761	477.29797	-870.66754	1416.06665	303.91553	-893.76001	1539.89319	179.37283	-931.56018	1585.30945	197.41377	-919.30652	1462.66541	58.37054	-1180.43933	1208.81445	639.63361	-1149.55066	1196.05798	516.86584	-1149.07959	1243.56396	253.63414	-1105.72119	1268.05969	68.05209	-1065.12903	1311.33789	42.13146	-1090.44653	1115.27942	35.62802	-1029.82593	1282.58752	1706.36157																											 
2	0.010	-971.49207	1175.75293	1670.87061	-1103.33533	1175.91736	1659.86694	-970.85986	1308.42529	1613.00879	-1100.05359	1306.09973	1607.15320	-1023.06445	1304.98804	1455.61938	-1018.51978	1331.36719	1126.98816	-1027.61011	1190.91089	1380.95947	-1018.49213	1150.56921	1204.49451	-1094.59717	1376.57117	1281.13171	-863.49933	1240.16406	1414.54041	-788.16498	1233.20569	1212.87744	-775.30170	1230.05554	1099.84485	-757.16809	1169.74255	961.67407	-803.22089	1079.57019	872.07135	-765.92847	1135.66602	847.73547	-768.20959	1071.18005	783.80194	-1186.25220	1246.97119	1407.32617	-1271.86829	1288.86279	1209.30237	-1285.84473	1279.73132	1087.92810	-1303.55200	1256.64697	970.20142	-1274.19055	1183.27625	837.82245	-1311.62366	1239.51355	833.71429	-1315.11279	1195.60071	761.32727	-912.97253	1157.02649	960.43085	-1133.27441	1160.28479	970.69427	-935.38196	1312.86621	994.81464	-1104.75867	1311.62952	1002.25897	-862.99213	1222.87231	640.59137	-886.83136	1223.60327	477.55490	-871.04871	1405.15283	303.80334	-892.85962	1528.53271	178.82558	-931.83020	1573.89282	195.03763	-915.58521	1447.96399	59.64368	-1181.12146	1205.27039	639.38812	-1150.16101	1193.27271	516.46216	-1149.27991	1242.22180	253.39226	-1105.71509	1267.85583	67.97842	-1065.12134	1311.33386	42.20956	-1090.46155	1115.26733	35.60514	-1030.31042	1277.33545	1706.42456																											 
3	0.020	-971.82458	1170.62219	1671.01196	-1103.65979	1170.46338	1660.10205	-971.34393	1303.18982	1612.99866	-1100.81750	1300.65063	1607.17126	-1023.77972	1299.41785	1455.81335	-1019.63318	1325.94971	1127.12622	-1028.27686	1185.30212	1381.07959	-1019.08051	1145.24939	1204.54492	-1095.65808	1370.99536	1281.40674	-864.08765	1235.00012	1414.46973	-788.82849	1228.83435	1212.72156	-775.71967	1226.27319	1099.79785	-757.16522	1167.30579	961.12030	-802.71570	1077.77551	870.51953	-765.68457	1134.23218	846.92944	-767.46466	1070.27100	782.28168	-1186.90845	1240.98022	1407.51208	-1273.13770	1282.73975	1209.77283	-1287.15613	1273.61877	1088.29114	-1305.01819	1250.27917	970.64838	-1275.63269	1176.60095	838.41125	-1313.20471	1232.88489	834.23737	-1316.64380	1188.66418	761.94531	-913.95239	1152.22644	960.51837	-1134.27625	1154.96411	970.64331	-936.25140	1307.51086	994.86951	-1105.70471	1306.27710	1002.18384	-864.11578	1214.61865	640.97656	-888.52356	1213.85571	478.05161	-871.49805	1393.91199	303.43536	-892.54321	1515.99536	177.25519	-932.27667	1561.62463	191.59389	-911.79865	1431.94397	60.53708	-1181.56433	1201.49390	639.02246	-1150.68774	1190.41003	515.97754	-1149.40051	1240.88708	253.16701	-1105.68335	1267.64478	67.92695	-1065.21594	1311.30933	42.26767	-1090.42810	1115.21667	35.57686	-1030.78601	1272.07458	1706.47266																											 
4	0.030	-972.11243	1165.41089	1671.20093	-1103.89197	1164.93604	1660.29749	-972.02881	1297.83521	1613.02112	-1101.42590	1295.12268	1607.23572	-1024.50452	1293.89783	1455.96069	-1020.73273	1320.57837	1127.28613	-1028.73865	1179.67444	1381.17346	-1019.61389	1140.06958	1204.58228	-1096.71838	1365.46582	1281.74341	-864.64618	1229.93860	1414.43774	-789.34430	1224.59985	1212.66138	-776.26105	1222.77502	1099.67480	-756.90588	1164.99915	960.55212	-802.24579	1076.11816	869.01624	-765.25110	1132.88831	846.04291	-766.72412	1069.62659	780.74738	-1187.48657	1234.94836	1407.69287	-1274.18176	1276.47449	1210.04688	-1288.43823	1267.42419	1088.66162	-1306.38525	1243.87549	971.08740	-1276.90918	1169.96057	838.99976	-1314.49890	1226.12036	834.63153	-1318.11047	1181.80237	762.53680	-914.74316	1146.49561	961.03094	-1135.20374	1149.70935	970.56024	-937.11731	1302.19543	995.04413	-1106.58252	1300.96082	1002.06372	-865.25433	1206.42151	641.43060	-890.14508	1204.39270	478.78061	-872.12262	1382.28137	302.82413	-892.42554	1502.56775	174.78343	-932.85718	1548.44324	187.22816	-908.10669	1415.07544	60.96782	-1182.11902	1197.80273	638.76953	-1151.27527	1187.59741	515.53876	-1149.69519	1239.39709	252.99239	-1105.71057	1267.47302	67.92203	-1065.28137	1311.33923	42.37017	-1090.40710	1115.24329	35.61272	-1031.28979	1266.79297	1706.53088																											 
